<svg xmlns="http://www.w3.org/2000/svg" width="20" height="20" fill="none" viewBox="0 0 20 20"><path fill="#606060" d="M0 2.61559C0 1.9219 0.263392 1.25661 0.732233 0.76609C1.20107 0.275571 1.83696 0 2.5 0L17.5 0C18.163 0 18.7989 0.275571 19.2678 0.76609C19.7366 1.25661 20 1.9219 20 2.61559V13.078C20 13.7717 19.7366 14.437 19.2678 14.9275C18.7989 15.418 18.163 15.6936 17.5 15.6936H5.5175C5.18601 15.6936 4.86812 15.8315 4.63375 16.0767L1.0675 19.8079C0.980163 19.8995 0.868814 19.9619 0.747545 19.9873C0.626276 20.0127 0.50054 19.9998 0.386249 19.9504C0.271959 19.901 0.174252 19.8172 0.105497 19.7096C0.0367407 19.6021 2.62686e-05 19.4756 0 19.3462L0 2.61559ZM4.375 3.92339C4.20924 3.92339 4.05027 3.99228 3.93306 4.11491C3.81585 4.23754 3.75 4.40386 3.75 4.57729C3.75 4.75071 3.81585 4.91704 3.93306 5.03967C4.05027 5.1623 4.20924 5.23119 4.375 5.23119H15.625C15.7908 5.23119 15.9497 5.1623 16.0669 5.03967C16.1842 4.91704 16.25 4.75071 16.25 4.57729C16.25 4.40386 16.1842 4.23754 16.0669 4.11491C15.9497 3.99228 15.7908 3.92339 15.625 3.92339H4.375ZM4.375 7.19288C4.20924 7.19288 4.05027 7.26178 3.93306 7.38441C3.81585 7.50704 3.75 7.67336 3.75 7.84678C3.75 8.02021 3.81585 8.18653 3.93306 8.30916C4.05027 8.43179 4.20924 8.50068 4.375 8.50068H15.625C15.7908 8.50068 15.9497 8.43179 16.0669 8.30916C16.1842 8.18653 16.25 8.02021 16.25 7.84678C16.25 7.67336 16.1842 7.50704 16.0669 7.38441C15.9497 7.26178 15.7908 7.19288 15.625 7.19288H4.375ZM4.375 10.4624C4.20924 10.4624 4.05027 10.5313 3.93306 10.6539C3.81585 10.7765 3.75 10.9428 3.75 11.1163C3.75 11.2897 3.81585 11.456 3.93306 11.5787C4.05027 11.7013 4.20924 11.7702 4.375 11.7702H10.625C10.7908 11.7702 10.9497 11.7013 11.0669 11.5787C11.1842 11.456 11.25 11.2897 11.25 11.1163C11.25 10.9428 11.1842 10.7765 11.0669 10.6539C10.9497 10.5313 10.7908 10.4624 10.625 10.4624H4.375Z"/></svg>