<svg xmlns="http://www.w3.org/2000/svg" width="4" height="20" fill="none" viewBox="0 0 4 20"><path fill="#606060" d="M2 4.375C3.03553 4.375 3.875 3.53553 3.875 2.5C3.875 1.46447 3.03553 0.625 2 0.625C0.964466 0.625 0.125 1.46447 0.125 2.5C0.125 3.53553 0.964466 4.375 2 4.375Z"/><path fill="#606060" d="M2 11.875C3.03553 11.875 3.875 11.0355 3.875 10C3.875 8.96447 3.03553 8.125 2 8.125C0.964466 8.125 0.125 8.96447 0.125 10C0.125 11.0355 0.964466 11.875 2 11.875Z"/><path fill="#606060" d="M2 19.375C3.03553 19.375 3.875 18.5355 3.875 17.5C3.875 16.4645 3.03553 15.625 2 15.625C0.964466 15.625 0.125 16.4645 0.125 17.5C0.125 18.5355 0.964466 19.375 2 19.375Z"/></svg>